<svg width="148" height="91" viewBox="0 0 148 91" fill="none" xmlns="http://www.w3.org/2000/svg">
<path d="M16.5587 77.674C16.5075 77.1584 16.2881 76.7578 15.9003 76.4723C15.5125 76.1868 14.9862 76.044 14.3215 76.044C13.8698 76.044 13.4884 76.108 13.1773 76.2358C12.8662 76.3594 12.6276 76.532 12.4614 76.7536C12.2994 76.9751 12.2185 77.2266 12.2185 77.5078C12.21 77.7422 12.259 77.9467 12.3655 78.1214C12.4763 78.2962 12.6276 78.4474 12.8193 78.5753C13.0111 78.6989 13.2327 78.8075 13.4841 78.9013C13.7355 78.9908 14.004 79.0675 14.2895 79.1314L15.4656 79.4126C16.0367 79.5405 16.5608 79.7109 17.0381 79.924C17.5154 80.1371 17.9287 80.3991 18.2781 80.7102C18.6276 81.0213 18.8982 81.3878 19.0899 81.8097C19.286 82.2315 19.3861 82.7152 19.3904 83.2607C19.3861 84.0618 19.1816 84.7564 18.7767 85.3445C18.3762 85.9283 17.7966 86.3821 17.0381 86.706C16.2838 87.0256 15.374 87.1854 14.3087 87.1854C13.2519 87.1854 12.3314 87.0234 11.5473 86.6996C10.7675 86.3757 10.1581 85.8963 9.71919 85.2614C9.28453 84.6222 9.05655 83.8317 9.03525 82.8899H11.7135C11.7433 83.3288 11.8691 83.6953 12.0906 83.9893C12.3165 84.2791 12.6169 84.4986 12.9919 84.6477C13.3712 84.7926 13.7994 84.8651 14.2767 84.8651C14.7455 84.8651 15.1524 84.7969 15.4976 84.6605C15.847 84.5241 16.1176 84.3345 16.3094 84.0916C16.5012 83.8487 16.597 83.5696 16.597 83.2543C16.597 82.9602 16.5097 82.7131 16.335 82.5128C16.1645 82.3125 15.9131 82.142 15.5807 82.0014C15.2526 81.8608 14.8499 81.733 14.3726 81.6179L12.9472 81.2599C11.8435 80.9915 10.972 80.5717 10.3328 80.0007C9.69363 79.4297 9.37615 78.6605 9.38042 77.6932C9.37615 76.9006 9.58709 76.2081 10.0132 75.6158C10.4436 75.0234 11.0338 74.5611 11.7838 74.2287C12.5338 73.8963 13.3861 73.7301 14.3406 73.7301C15.3122 73.7301 16.1602 73.8963 16.8847 74.2287C17.6134 74.5611 18.1801 75.0234 18.585 75.6158C18.9898 76.2081 19.1986 76.8942 19.2114 77.674H16.5587ZM26.4232 77.1818V79.2273H20.5106V77.1818H26.4232ZM21.8529 74.8295H24.5759V83.983C24.5759 84.2344 24.6143 84.4304 24.691 84.571C24.7677 84.7074 24.8742 84.8033 25.0106 84.8587C25.1512 84.9141 25.3131 84.9418 25.4964 84.9418C25.6242 84.9418 25.752 84.9311 25.8799 84.9098C26.0077 84.8842 26.1057 84.8651 26.1739 84.8523L26.6022 86.8786C26.4658 86.9212 26.2741 86.9702 26.0269 87.0256C25.7797 87.0852 25.4793 87.1214 25.1256 87.1342C24.4694 87.1598 23.8941 87.0724 23.3998 86.8722C22.9097 86.6719 22.5283 86.3608 22.2556 85.9389C21.9829 85.517 21.8486 84.9844 21.8529 84.3409V74.8295ZM30.9967 87.1854C30.3703 87.1854 29.8121 87.0767 29.322 86.8594C28.8319 86.6378 28.4442 86.3118 28.1586 85.8814C27.8774 85.4467 27.7368 84.9055 27.7368 84.2578C27.7368 83.7124 27.8369 83.2543 28.0372 82.8835C28.2375 82.5128 28.5102 82.2145 28.8554 81.9886C29.2006 81.7628 29.5926 81.5923 30.0315 81.4773C30.4747 81.3622 30.9392 81.2812 31.425 81.2344C31.996 81.1747 32.4562 81.1193 32.8057 81.0682C33.1551 81.0128 33.4086 80.9318 33.5663 80.8253C33.724 80.7187 33.8028 80.5611 33.8028 80.3523V80.3139C33.8028 79.9091 33.675 79.5959 33.4193 79.3743C33.1679 79.1527 32.8099 79.0419 32.3454 79.0419C31.8554 79.0419 31.4655 79.1506 31.1757 79.3679C30.8859 79.581 30.6942 79.8494 30.6004 80.1733L28.0819 79.9688C28.2098 79.3722 28.4612 78.8565 28.8362 78.4219C29.2112 77.983 29.6949 77.6463 30.2872 77.4119C30.8838 77.1733 31.5741 77.054 32.3582 77.054C32.9037 77.054 33.4257 77.1179 33.9243 77.2457C34.4271 77.3736 34.8724 77.5717 35.2602 77.8402C35.6523 78.1087 35.9612 78.4538 36.1871 78.8757C36.4129 79.2933 36.5258 79.794 36.5258 80.3778V87H33.9434V85.6385H33.8667C33.7091 85.9453 33.4981 86.2159 33.2339 86.4503C32.9697 86.6804 32.6523 86.8615 32.2815 86.9936C31.9108 87.1214 31.4825 87.1854 30.9967 87.1854ZM31.7765 85.3061C32.1771 85.3061 32.5308 85.2273 32.8376 85.0696C33.1444 84.9077 33.3852 84.6903 33.5599 84.4176C33.7346 84.1449 33.822 83.8359 33.822 83.4908V82.4489C33.7368 82.5043 33.6196 82.5554 33.4704 82.6023C33.3256 82.6449 33.1615 82.6854 32.9782 82.7237C32.795 82.7578 32.6118 82.7898 32.4285 82.8196C32.2453 82.8452 32.0791 82.8686 31.93 82.8899C31.6104 82.9368 31.3312 83.0114 31.0926 83.1136C30.854 83.2159 30.6686 83.3544 30.5365 83.5291C30.4044 83.6996 30.3383 83.9126 30.3383 84.1683C30.3383 84.5391 30.4726 84.8224 30.741 85.0185C31.0138 85.2102 31.3589 85.3061 31.7765 85.3061ZM38.6384 87V77.1818H41.2783V78.8949H41.3806C41.5596 78.2855 41.86 77.8253 42.2819 77.5142C42.7037 77.1989 43.1895 77.0412 43.7393 77.0412C43.8756 77.0412 44.0226 77.0497 44.1803 77.0668C44.338 77.0838 44.4765 77.1072 44.5958 77.1371V79.5533C44.468 79.5149 44.2911 79.4808 44.0653 79.451C43.8394 79.4212 43.6327 79.4062 43.4452 79.4062C43.0447 79.4062 42.6867 79.4936 42.3714 79.6683C42.0603 79.8388 41.8131 80.0774 41.6299 80.3842C41.4509 80.6911 41.3614 81.0447 41.3614 81.4453V87H38.6384ZM51.7181 77.1818V79.2273H45.8055V77.1818H51.7181ZM47.1478 74.8295H49.8708V83.983C49.8708 84.2344 49.9092 84.4304 49.9859 84.571C50.0626 84.7074 50.1691 84.8033 50.3055 84.8587C50.4461 84.9141 50.608 84.9418 50.7913 84.9418C50.9191 84.9418 51.047 84.9311 51.1748 84.9098C51.3026 84.8842 51.4007 84.8651 51.4688 84.8523L51.8971 86.8786C51.7607 86.9212 51.569 86.9702 51.3218 87.0256C51.0747 87.0852 50.7742 87.1214 50.4205 87.1342C49.7643 87.1598 49.189 87.0724 48.6947 86.8722C48.2046 86.6719 47.8232 86.3608 47.5505 85.9389C47.2778 85.517 47.1436 84.9844 47.1478 84.3409V74.8295ZM62.1324 87.1918C61.1224 87.1918 60.2531 86.9872 59.5244 86.5781C58.8 86.1648 58.2417 85.581 57.8497 84.8267C57.4577 84.0682 57.2616 83.1712 57.2616 82.1357C57.2616 81.1257 57.4577 80.2393 57.8497 79.4766C58.2417 78.7138 58.7936 78.1193 59.5052 77.6932C60.2211 77.267 61.0606 77.054 62.0237 77.054C62.6714 77.054 63.2744 77.1584 63.8327 77.3672C64.3952 77.5717 64.8852 77.8807 65.3028 78.294C65.7247 78.7074 66.0528 79.2273 66.2872 79.8537C66.5216 80.4759 66.6388 81.2045 66.6388 82.0398V82.7876H58.3483V81.1001H64.0756C64.0756 80.7081 63.9903 80.3608 63.8199 80.0582C63.6494 79.7557 63.4129 79.5192 63.1104 79.3487C62.8121 79.174 62.4648 79.0866 62.0684 79.0866C61.6551 79.0866 61.2886 79.1825 60.969 79.3743C60.6537 79.5618 60.4065 79.8153 60.2275 80.1349C60.0486 80.4503 59.9569 80.8018 59.9527 81.1896V82.794C59.9527 83.2798 60.0422 83.6996 60.2211 84.0533C60.4044 84.407 60.6622 84.6797 60.9946 84.8714C61.327 85.0632 61.7211 85.1591 62.1771 85.1591C62.4797 85.1591 62.7567 85.1165 63.0081 85.0312C63.2595 84.946 63.4747 84.8182 63.6537 84.6477C63.8327 84.4773 63.969 84.2685 64.0628 84.0213L66.5812 84.1875C66.4534 84.7926 66.1913 85.321 65.795 85.7727C65.403 86.2202 64.8959 86.5696 64.2737 86.821C63.6558 87.0682 62.942 87.1918 62.1324 87.1918ZM70.5155 77.1818L72.3181 80.6143L74.1654 77.1818H76.9587L74.1143 82.0909L77.0354 87H74.2549L72.3181 83.6058L70.4133 87H67.6008L70.5155 82.0909L67.703 77.1818H70.5155ZM78.5759 90.6818V77.1818H81.2606V78.831H81.382C81.5013 78.5668 81.6739 78.2983 81.8998 78.0256C82.1299 77.7486 82.4282 77.5185 82.7947 77.3352C83.1654 77.1477 83.6256 77.054 84.1753 77.054C84.8912 77.054 85.5518 77.2415 86.1569 77.6165C86.762 77.9872 87.2457 78.5476 87.6079 79.2976C87.9701 80.0433 88.1512 80.9787 88.1512 82.1037C88.1512 83.1989 87.9743 84.1236 87.6207 84.8778C87.2712 85.6278 86.7939 86.1967 86.1888 86.5845C85.588 86.968 84.9147 87.1598 84.1689 87.1598C83.6405 87.1598 83.191 87.0724 82.8202 86.8977C82.4537 86.723 82.1533 86.5036 81.9189 86.2393C81.6846 85.9709 81.5056 85.7003 81.382 85.4276H81.2989V90.6818H78.5759ZM81.2414 82.0909C81.2414 82.6747 81.3224 83.1839 81.4843 83.6186C81.6462 84.0533 81.8806 84.392 82.1874 84.6349C82.4942 84.8736 82.8671 84.9929 83.306 84.9929C83.7492 84.9929 84.1242 84.8714 84.431 84.6286C84.7378 84.3814 84.9701 84.0405 85.1278 83.6058C85.2897 83.1669 85.3707 82.6619 85.3707 82.0909C85.3707 81.5241 85.2918 81.0256 85.1341 80.5952C84.9765 80.1648 84.7442 79.8281 84.4374 79.5852C84.1306 79.3423 83.7535 79.2209 83.306 79.2209C82.8628 79.2209 82.4878 79.3381 82.181 79.5724C81.8785 79.8068 81.6462 80.1392 81.4843 80.5696C81.3224 81 81.2414 81.5071 81.2414 82.0909ZM92.6895 73.9091V87H89.9665V73.9091H92.6895ZM99.3069 87.1918C98.314 87.1918 97.4553 86.9808 96.7309 86.5589C96.0107 86.1328 95.4546 85.5405 95.0626 84.782C94.6705 84.0192 94.4745 83.1349 94.4745 82.1293C94.4745 81.1151 94.6705 80.2287 95.0626 79.4702C95.4546 78.7074 96.0107 78.1151 96.7309 77.6932C97.4553 77.267 98.314 77.054 99.3069 77.054C100.3 77.054 101.156 77.267 101.877 77.6932C102.601 78.1151 103.159 78.7074 103.551 79.4702C103.943 80.2287 104.139 81.1151 104.139 82.1293C104.139 83.1349 103.943 84.0192 103.551 84.782C103.159 85.5405 102.601 86.1328 101.877 86.5589C101.156 86.9808 100.3 87.1918 99.3069 87.1918ZM99.3197 85.0824C99.7714 85.0824 100.149 84.9545 100.451 84.6989C100.754 84.4389 100.982 84.0852 101.135 83.6378C101.293 83.1903 101.372 82.6811 101.372 82.1101C101.372 81.5391 101.293 81.0298 101.135 80.5824C100.982 80.1349 100.754 79.7812 100.451 79.5213C100.149 79.2614 99.7714 79.1314 99.3197 79.1314C98.8637 79.1314 98.4802 79.2614 98.1691 79.5213C97.8623 79.7812 97.6301 80.1349 97.4724 80.5824C97.319 81.0298 97.2423 81.5391 97.2423 82.1101C97.2423 82.6811 97.319 83.1903 97.4724 83.6378C97.6301 84.0852 97.8623 84.4389 98.1691 84.6989C98.4802 84.9545 98.8637 85.0824 99.3197 85.0824ZM105.91 87V77.1818H108.55V78.8949H108.652C108.831 78.2855 109.131 77.8253 109.553 77.5142C109.975 77.1989 110.461 77.0412 111.011 77.0412C111.147 77.0412 111.294 77.0497 111.452 77.0668C111.609 77.0838 111.748 77.1072 111.867 77.1371V79.5533C111.739 79.5149 111.563 79.4808 111.337 79.451C111.111 79.4212 110.904 79.4062 110.717 79.4062C110.316 79.4062 109.958 79.4936 109.643 79.6683C109.332 79.8388 109.085 80.0774 108.901 80.3842C108.722 80.6911 108.633 81.0447 108.633 81.4453V87H105.91ZM113.275 87V77.1818H115.998V87H113.275ZM114.643 75.9162C114.238 75.9162 113.891 75.782 113.601 75.5135C113.316 75.2408 113.173 74.9148 113.173 74.5355C113.173 74.1605 113.316 73.8388 113.601 73.5703C113.891 73.2976 114.238 73.1612 114.643 73.1612C115.048 73.1612 115.393 73.2976 115.679 73.5703C115.968 73.8388 116.113 74.1605 116.113 74.5355C116.113 74.9148 115.968 75.2408 115.679 75.5135C115.393 75.782 115.048 75.9162 114.643 75.9162ZM120.902 81.3239V87H118.179V77.1818H120.775V78.9141H120.89C121.107 78.343 121.471 77.8913 121.983 77.5589C122.494 77.2223 123.114 77.054 123.843 77.054C124.525 77.054 125.119 77.2031 125.626 77.5014C126.133 77.7997 126.527 78.2259 126.809 78.7798C127.09 79.3295 127.231 79.9858 127.231 80.7486V87H124.508V81.2344C124.512 80.6335 124.358 80.1648 124.047 79.8281C123.736 79.4872 123.308 79.3168 122.763 79.3168C122.396 79.3168 122.072 79.3956 121.791 79.5533C121.514 79.7109 121.297 79.9411 121.139 80.2436C120.986 80.5419 120.907 80.902 120.902 81.3239ZM133.8 90.8864C132.918 90.8864 132.161 90.7649 131.531 90.522C130.904 90.2834 130.406 89.9574 130.035 89.544C129.664 89.1307 129.424 88.6662 129.313 88.1506L131.831 87.8118C131.908 88.0078 132.029 88.1911 132.196 88.3615C132.362 88.532 132.581 88.6683 132.854 88.7706C133.131 88.8771 133.468 88.9304 133.864 88.9304C134.456 88.9304 134.944 88.7855 135.328 88.4957C135.715 88.2102 135.909 87.7308 135.909 87.0575V85.2614H135.794C135.675 85.5341 135.496 85.7919 135.257 86.0348C135.019 86.2777 134.712 86.4759 134.337 86.6293C133.962 86.7827 133.514 86.8594 132.995 86.8594C132.257 86.8594 131.586 86.6889 130.981 86.348C130.38 86.0028 129.901 85.4766 129.543 84.7692C129.189 84.0575 129.012 83.1584 129.012 82.0717C129.012 80.9595 129.193 80.0305 129.556 79.2848C129.918 78.5391 130.399 77.9808 131 77.6101C131.605 77.2393 132.268 77.054 132.988 77.054C133.538 77.054 133.998 77.1477 134.369 77.3352C134.74 77.5185 135.038 77.7486 135.264 78.0256C135.494 78.2983 135.671 78.5668 135.794 78.831H135.897V77.1818H138.6V87.0959C138.6 87.9311 138.396 88.63 137.987 89.1925C137.578 89.755 137.011 90.1768 136.286 90.4581C135.566 90.7436 134.737 90.8864 133.8 90.8864ZM133.858 84.8139C134.296 84.8139 134.667 84.7053 134.97 84.4879C135.277 84.2663 135.511 83.951 135.673 83.5419C135.839 83.1286 135.922 82.6342 135.922 82.0589C135.922 81.4837 135.841 80.9851 135.679 80.5632C135.517 80.1371 135.283 79.8068 134.976 79.5724C134.669 79.3381 134.296 79.2209 133.858 79.2209C133.41 79.2209 133.033 79.3423 132.726 79.5852C132.419 79.8239 132.187 80.1562 132.029 80.5824C131.872 81.0085 131.793 81.5007 131.793 82.0589C131.793 82.6257 131.872 83.1158 132.029 83.5291C132.191 83.9382 132.424 84.2557 132.726 84.4815C133.033 84.7031 133.41 84.8139 133.858 84.8139Z" fill="#DFDDDD"/>
<path fill-rule="evenodd" clip-rule="evenodd" d="M47.75 0C42.9175 0 39 3.9175 39 8.75V52.5C39 57.3325 42.9175 61.25 47.75 61.25H100.25C105.082 61.25 109 57.3325 109 52.5V8.75C109 3.9175 105.082 0 100.25 0H47.75ZM60.875 8.75H87.125V26.25H60.875V8.75ZM95.875 43.75V52.5H100.25V43.75H95.875ZM87.125 35H60.875V52.5H87.125V35ZM95.875 35H100.25V26.25H95.875V35ZM100.25 17.5V8.75H95.875V17.5H100.25ZM52.125 8.75V17.5H47.75V8.75H52.125ZM52.125 26.25H47.75V35H52.125V26.25ZM47.75 43.75H52.125V52.5H47.75V43.75Z" fill="#DFDDDD"/>
</svg>
